<svg width="100" height="120" fill="none" viewBox="0 0 100 120" xmlns="http://www.w3.org/2000/svg">
    <path fill="#8386FF" d="M85.3552 14.5583C104.881 33.9695 104.881 65.4417 85.3552 84.8528L49.9999 120L14.6446 84.8528C-4.88152 65.4417 -4.88152 33.9695 14.6446 14.5583C34.1706 -4.85278 65.8292 -4.85278 85.3552 14.5583Z" />
    <path fill="#FFFFFF" d="M51.858 35.2198C53.7476 35.2198 55.4391 35.5461 56.9322 36.1993C58.4254 36.8292 59.6277 37.7743 60.5377 39.0342C61.4709 40.2708 62.0543 41.7994 62.2877 43.6192H57.4576C57.1542 42.476 56.5353 41.5781 55.6021 40.9249C54.6922 40.2483 53.479 39.9092 51.9625 39.9092C50.2827 39.9093 48.9413 40.2947 47.938 41.0645C46.9581 41.8111 46.2466 42.7916 45.8033 44.0049C45.36 45.1948 45.1383 46.4544 45.1382 47.7842C45.1382 49.1608 45.3709 50.4676 45.8375 51.7042C46.3041 52.9407 47.0394 53.944 48.0425 54.7139C49.0692 55.4839 50.4113 55.8692 52.0679 55.8692C53.0478 55.8692 53.923 55.7292 54.6929 55.4493C55.4627 55.146 56.0927 54.7142 56.5826 54.1543C57.0959 53.5944 57.4457 52.9292 57.6324 52.1592H62.6373C62.4273 53.9558 61.8202 55.4842 60.817 56.7442C59.8137 58.004 58.5423 58.961 57.0025 59.6143C55.4626 60.2443 53.7587 60.5586 51.8921 60.5586C49.3491 60.5586 47.1789 60.0452 45.3824 59.0186C43.6094 57.9687 42.256 56.4991 41.3228 54.6094C40.4128 52.7195 39.9576 50.5141 39.9576 47.9942C39.9576 45.4277 40.4247 43.1877 41.358 41.2745C42.3145 39.3613 43.6796 37.8801 45.4527 36.8301C47.226 35.7568 49.3614 35.2198 51.858 35.2198ZM22.813 45.7891H26.313L32.7525 35.5001H38.4927L30.5123 47.5391L38.4927 60.2793H32.6129L26.523 50.4092H22.813V60.2793H17.8082V35.5001H22.813V45.7891ZM84.192 40.1543H76.5972V60.2793H71.5572V40.1543H63.9976V35.5001H84.192V40.1543Z" />
</svg>
